<svg xmlns="http://www.w3.org/2000/svg" viewBox="0 0 24 24" width="48px" height="48px">
    <defs>
        <linearGradient id="gradient" x1="0%" y1="0%" x2="100%" y2="100%">
            <stop offset="0%" style="stop-color:#F58529; stop-opacity:1" />
            <stop offset="50%" style="stop-color:#F77737; stop-opacity:1" />
            <stop offset="100%" style="stop-color:#D62976; stop-opacity:1" />
        </linearGradient>
    </defs>
    <path fill="url(#gradient)" d="M12 2.163c3.206 0 3.577.012 4.837.07 1.205.058 1.962.25 2.418.426.474.185 1.055.5 1.526 1.072.471.572.887 1.052 1.072 1.526.175.456.368 1.213.426 2.418.058 1.26.07 1.631.07 4.837s-.012 3.577-.07 4.837c-.058 1.205-.25 1.962-.426 2.418-.185.474-.5 1.055-1.072 1.526-.572.471-1.052.887-1.526 1.072-.456.175-1.213.368-2.418.426-1.26.058-1.631.07-4.837.07s-3.577-.012-4.837-.07c-1.205-.058-1.962-.25-2.418-.426-.474-.185-1.055-.5-1.526-1.072-.572-.471-1.052-.887-1.526-1.072-.456-.175-1.213-.368-2.418-.426C2.163 15.577 2.15 15.206 2.15 12s.012-3.577.07-4.837c.058-1.205.25-1.962.426-2.418.185-.474.5-1.055 1.072-1.526C4.23 2.563 4.81 2.147 5.286 1.962c.456-.175 1.213-.368 2.418-.426C8.423 2.175 8.793 2.163 12 2.163zm0 1.624c-3.173 0-3.548.012-4.789.07-1.131.055-1.8.248-2.214.394-.456.173-.735.37-.943.573-.208.203-.4.487-.573.943-.146.414-.339 1.083-.394 2.214-.058 1.241-.07 1.616-.07 4.789s.012 3.548.07 4.789c.055 1.131.248 1.8.394 2.214.173.456.37.735.573.943.203.208.487.4.943.573.414.146 1.083.339 2.214.394 1.241.058 1.616.07 4.789.07s3.548-.012 4.789-.07c1.131-.055 1.8-.248 2.214-.394.456-.173.735-.37.943-.573.208-.203.4-.487.573-.943.146-.414.339-1.083.394-2.214.058-1.241.07-1.616.07-4.789s-.012-3.548-.07-4.789c-.055-1.131-.248-1.8-.394-2.214-.173-.456-.37-.735-.573-.943-.203-.208-.487-.4-.943-.573-.414-.146-1.083-.339-2.214-.394C15.548 3.799 15.173 3.813 12 3.813zm0 2.84a5.162 5.162 0 1 0 0 10.324 5.162 5.162 0 0 0 0-10.324zm0 1.621a3.54 3.54 0 1 1 0 7.081 3.54 3.54 0 0 1 0-7.081zm6.245-.174a1.205 1.205 0 1 1 0 2.41 1.205 1.205 0 0 1 0-2.41z"/>
</svg>
